<?xml version="1.0" encoding="UTF-8"?>
<svg version="1.1" xmlns="http://www.w3.org/2000/svg" width="213" height="236">
<path d="M0 0 C3.21838395 1.5901873 6.31758845 3.31454101 9.42553711 5.11083984 C10.56708252 5.74836182 11.70862793 6.38588379 12.88476562 7.04272461 C16.309094 8.95629091 19.71157322 10.90690476 23.11303711 12.86083984 C24.91729219 13.8863406 26.72194441 14.91114311 28.52709961 15.93505859 C31.90705708 17.85794114 35.27917898 19.79385989 38.64819336 21.73583984 C44.89159463 25.32259723 51.1897686 28.80912486 57.48803711 32.29833984 C59.18488647 33.24169189 59.18488647 33.24169189 60.91601562 34.20410156 C66.52284854 37.32110152 72.13738591 40.42216175 77.76928711 43.49365234 C79.8423738 44.63657316 81.91529819 45.77978844 83.98803711 46.92333984 C84.93855957 47.43501709 85.88908203 47.94669434 86.8684082 48.47387695 C87.75093262 48.96380127 88.63345703 49.45372559 89.54272461 49.95849609 C90.3082666 50.37623291 91.07380859 50.79396973 91.86254883 51.22436523 C95.67373193 53.99572131 98.65106461 56.50319559 99.57687378 61.22799778 C99.75691049 64.16357621 99.77706758 67.06241148 99.74414062 70.00341797 C99.75487358 71.67276649 99.75487358 71.67276649 99.76582336 73.37583923 C99.78270851 77.04834247 99.763307 80.71962478 99.74194336 84.39208984 C99.74277206 86.9474701 99.7452315 89.50285031 99.74925232 92.05822754 C99.75211023 97.41139191 99.73794011 102.76412564 99.70996094 108.1171875 C99.67791116 114.29649778 99.67792635 120.47517686 99.69517571 126.65453196 C99.71106747 132.61117632 99.70419182 138.56762785 99.68723869 144.52427673 C99.68205724 147.05361922 99.68253822 149.58297987 99.68878365 152.11231995 C99.69423674 155.64803092 99.67385534 159.18267258 99.64648438 162.71826172 C99.65627319 164.28476723 99.65627319 164.28476723 99.66625977 165.88291931 C99.58773013 171.8520725 99.0949465 175.31580253 95.11303711 179.86083984 C92.76074219 181.60498047 92.76074219 181.60498047 90.13256836 183.01708984 C89.14627441 183.5572876 88.15998047 184.09748535 87.14379883 184.65405273 C86.08177246 185.21729248 85.01974609 185.78053223 83.92553711 186.36083984 C81.65319957 187.59875014 79.38106989 188.83704207 77.10913086 190.07568359 C75.93465648 190.70994576 74.76001434 191.34389739 73.58520508 191.97753906 C68.18863627 194.90463313 62.83944499 197.91472586 57.48803711 200.92333984 C55.40216068 202.09141765 53.31622343 203.25938687 51.23022461 204.42724609 C46.29754659 207.19319731 41.37131616 209.9703204 36.44995117 212.75634766 C34.57047136 213.81933744 32.68962617 214.879917 30.80737305 215.93798828 C25.65256111 218.83857158 20.52999169 221.78484126 15.43334961 224.78662109 C14.31637695 225.43501953 13.1994043 226.08341797 12.04858398 226.75146484 C9.89753946 228.00021282 7.75500366 229.26377623 5.62280273 230.54443359 C-3.801361 235.97215709 -3.801361 235.97215709 -9.45581055 235.5168457 C-15.21649922 233.96242007 -20.27743745 230.72880654 -25.38696289 227.73583984 C-26.67251731 227.00179086 -27.9591572 226.26963992 -29.24682617 225.53930664 C-31.87092495 224.04784845 -34.4890878 222.54672163 -37.1027832 221.03710938 C-41.60334348 218.44159877 -46.14093906 215.91399071 -50.6809082 213.38818359 C-61.57248113 207.32618611 -72.42656157 201.19542561 -83.26586914 195.04052734 C-87.11540164 192.85600356 -90.97873639 190.69864799 -94.85180664 188.55615234 C-96.75938409 187.4910936 -98.6669371 186.4259911 -100.57446289 185.36083984 C-101.45392578 184.88050293 -102.33338867 184.40016602 -103.23950195 183.90527344 C-104.4629834 183.21812256 -104.4629834 183.21812256 -105.71118164 182.51708984 C-106.42363037 182.12328125 -107.1360791 181.72947266 -107.87011719 181.32373047 C-111.18973154 178.91589495 -113.5706127 176.7921387 -114.26232624 172.56926918 C-114.41602887 169.61975744 -114.43864029 166.69352551 -114.42041016 163.73999023 C-114.42902573 162.61748367 -114.4376413 161.49497711 -114.44651794 160.3384552 C-114.46921885 156.62823421 -114.46243079 152.91876601 -114.45336914 149.20849609 C-114.45860299 146.62926509 -114.46487859 144.050036 -114.47215271 141.47080994 C-114.48256472 136.06466661 -114.47831323 130.65881077 -114.46337891 125.25268555 C-114.44645999 119.01141689 -114.46229059 112.77084777 -114.49460179 106.52965552 C-114.5245515 100.51585463 -114.5264755 94.50240905 -114.5171032 88.48852348 C-114.51628281 85.93404671 -114.52316279 83.37955547 -114.53787422 80.82512093 C-114.55529048 77.25325652 -114.54079902 73.68288816 -114.51806641 70.11108398 C-114.52975861 69.0558252 -114.54145081 68.00056641 -114.55349731 66.91333008 C-114.44990019 58.91417259 -114.44990019 58.91417259 -111.51509094 55.2734375 C-108.87774815 52.85238079 -106.45162803 51.14090856 -103.30102539 49.45068359 C-102.21740723 48.8602124 -101.13378906 48.26974121 -100.01733398 47.66137695 C-98.86056152 47.04657471 -97.70378906 46.43177246 -96.51196289 45.79833984 C-95.29455585 45.13903916 -94.07793179 44.47829081 -92.86206055 43.81616211 C-90.3889408 42.46997401 -87.91323922 41.1287306 -85.43579102 39.79052734 C-80.3388473 37.02885314 -75.30025795 34.1652306 -70.26196289 31.29833984 C-64.39495207 27.97145248 -58.52356016 24.65297387 -52.63696289 21.36083984 C-51.58532959 20.77262451 -50.53369629 20.18440918 -49.45019531 19.57836914 C-47.33983914 18.40013139 -45.22804051 17.22447322 -43.11474609 16.05151367 C-38.02226068 13.21685514 -32.9751405 10.33411081 -27.99243164 7.31005859 C-27.0567334 6.7500415 -26.12103516 6.19002441 -25.15698242 5.61303711 C-23.41377734 4.565385 -21.68065277 3.50067646 -19.96069336 2.4152832 C-13.19127714 -1.62430592 -7.52047804 -2.96748842 0 0 Z M-60.88696289 58.86083984 C-60.88696289 59.52083984 -60.88696289 60.18083984 -60.88696289 60.86083984 C-61.54696289 60.86083984 -62.20696289 60.86083984 -62.88696289 60.86083984 C-62.88696289 61.52083984 -62.88696289 62.18083984 -62.88696289 62.86083984 C-63.54696289 62.86083984 -64.20696289 62.86083984 -64.88696289 62.86083984 C-79.14926586 78.72075313 -86.05343173 98.69848831 -85.88696289 119.86083984 C-84.54858618 143.21073351 -74.83067269 162.04293875 -57.58862305 177.41894531 C-53.63306673 180.77066921 -49.46489912 183.44924844 -44.88696289 185.86083984 C-44.04133789 186.31716797 -43.19571289 186.77349609 -42.32446289 187.24365234 C-24.48160831 196.1119759 -3.85360978 197.76409704 15.26147461 192.25537109 C25.77424658 188.64042459 35.89279732 183.39481642 44.11303711 175.86083984 C45.50329102 174.59046875 45.50329102 174.59046875 46.92163086 173.29443359 C52.52440376 168.0112882 56.84066445 162.84885088 60.11303711 155.86083984 C53.26665909 151.47278139 46.21852108 147.49990052 39.11303711 143.54833984 C37.94496436 142.89683356 36.77699484 142.24514216 35.60913086 141.59326172 C32.77810576 140.01397086 29.94605742 138.43654787 27.11303711 136.86083984 C26.49299805 137.64330078 25.87295898 138.42576172 25.23413086 139.23193359 C17.43302293 148.90071009 8.03310126 154.44946892 -4.38696289 155.86083984 C-15.02845211 156.28039677 -24.43128689 153.35280599 -32.88696289 146.86083984 C-40.40120112 139.89466505 -45.29680775 131.02317723 -46.14477539 120.73193359 C-46.52239132 109.26499649 -44.34014887 99.68193718 -36.79711914 90.82568359 C-29.06448024 82.87166034 -18.98394974 77.86685475 -7.76196289 77.61083984 C2.8716386 77.78718481 12.95361719 81.72658783 20.51538086 89.25146484 C22.44657909 91.41006252 24.31010189 93.59458049 26.11303711 95.86083984 C36.91086638 90.09525419 47.49810694 83.95396645 58.11303711 77.86083984 C58.11303711 72.28994576 55.52367779 70.04519068 52.11303711 65.86083984 C51.67991211 65.28076172 51.24678711 64.70068359 50.80053711 64.10302734 C39.70097458 49.89823005 21.46627098 41.96264127 4.11303711 38.86083984 C-19.14486514 37.09648083 -43.55710815 42.01236995 -60.88696289 58.86083984 Z " fill="#00589C" transform="translate(113.886962890625,1.13916015625)"/>
<path d="M0 0 C3.21838395 1.5901873 6.31758845 3.31454101 9.42553711 5.11083984 C10.56708252 5.74836182 11.70862793 6.38588379 12.88476562 7.04272461 C16.309094 8.95629091 19.71157322 10.90690476 23.11303711 12.86083984 C24.91729219 13.8863406 26.72194441 14.91114311 28.52709961 15.93505859 C31.90705708 17.85794114 35.27917898 19.79385989 38.64819336 21.73583984 C44.89158905 25.32259402 51.18960437 28.80943023 57.48803711 32.29833984 C59.76673639 33.56386862 62.0453824 34.82949331 64.32397461 36.09521484 C67.71599863 37.97869875 71.10962694 39.85896264 74.50854492 41.72998047 C77.71439541 43.49503096 80.91415404 45.27070173 84.11303711 47.04833984 C85.56395752 47.84099243 85.56395752 47.84099243 87.04418945 48.6496582 C88.37764404 49.39421265 88.37764404 49.39421265 89.73803711 50.15380859 C90.51405273 50.58201904 91.29006836 51.01022949 92.08959961 51.45141602 C94.31305485 53.00016204 95.61256248 54.62117837 97.11303711 56.86083984 C96.29963867 57.25013672 95.48624023 57.63943359 94.64819336 58.04052734 C83.83180355 63.32096961 73.44453063 69.27242213 63.24194336 75.65771484 C61.11303711 76.86083984 61.11303711 76.86083984 59.11303711 76.86083984 C57.59741211 74.91943359 57.59741211 74.91943359 55.86303711 72.29833984 C43.92305292 54.9133322 27.29798097 44.92137479 6.72729492 40.328125 C-15.36454824 36.37932151 -36.51195063 42.73492727 -54.88696289 54.86083984 C-56.22380344 56.19065671 -57.55803723 57.52311336 -58.88696289 58.86083984 C-59.54696289 58.86083984 -60.20696289 58.86083984 -60.88696289 58.86083984 C-60.88696289 59.52083984 -60.88696289 60.18083984 -60.88696289 60.86083984 C-61.54696289 60.86083984 -62.20696289 60.86083984 -62.88696289 60.86083984 C-62.88696289 61.52083984 -62.88696289 62.18083984 -62.88696289 62.86083984 C-63.54696289 62.86083984 -64.20696289 62.86083984 -64.88696289 62.86083984 C-65.13961914 63.42029297 -65.39227539 63.97974609 -65.65258789 64.55615234 C-67.06789783 67.19866141 -68.78720645 69.3770419 -70.63696289 71.73583984 C-82.42861386 87.80758191 -86.41244905 107.8436754 -84.26196289 127.42333984 C-82.77794355 137.00847844 -79.49510368 145.88816416 -75.88696289 154.86083984 C-79.63316524 157.07566157 -83.38461596 159.28144691 -87.13696289 161.48583984 C-88.70317383 162.41203125 -88.70317383 162.41203125 -90.30102539 163.35693359 C-105.59804423 172.3274076 -105.59804423 172.3274076 -111.88696289 174.86083984 C-112.54696289 174.53083984 -113.20696289 174.20083984 -113.88696289 173.86083984 C-114.00384876 158.97043469 -114.09197666 144.08006514 -114.14602375 129.18929863 C-114.17178772 122.27496871 -114.20690294 115.36092411 -114.26416016 108.44677734 C-114.31938532 101.774823 -114.3483811 95.10322636 -114.36134911 88.43103409 C-114.37059118 85.88489235 -114.3886387 83.33876693 -114.41561317 80.79275131 C-114.45188375 77.22768785 -114.45690877 73.66385095 -114.45458984 70.09863281 C-114.47256622 69.04486954 -114.4905426 67.99110626 -114.50906372 66.90541077 C-114.45277543 58.91358639 -114.45277543 58.91358639 -111.51905823 55.2742157 C-108.87989038 52.85435504 -106.45209787 51.14116062 -103.30102539 49.45068359 C-102.21740723 48.8602124 -101.13378906 48.26974121 -100.01733398 47.66137695 C-98.86056152 47.04657471 -97.70378906 46.43177246 -96.51196289 45.79833984 C-95.29455585 45.13903916 -94.07793179 44.47829081 -92.86206055 43.81616211 C-90.3889408 42.46997401 -87.91323922 41.1287306 -85.43579102 39.79052734 C-80.3388473 37.02885314 -75.30025795 34.1652306 -70.26196289 31.29833984 C-64.39495207 27.97145248 -58.52356016 24.65297387 -52.63696289 21.36083984 C-51.58532959 20.77262451 -50.53369629 20.18440918 -49.45019531 19.57836914 C-47.33983914 18.40013139 -45.22804051 17.22447322 -43.11474609 16.05151367 C-38.02226068 13.21685514 -32.9751405 10.33411081 -27.99243164 7.31005859 C-27.0567334 6.7500415 -26.12103516 6.19002441 -25.15698242 5.61303711 C-23.41377734 4.565385 -21.68065277 3.50067646 -19.96069336 2.4152832 C-13.19127714 -1.62430592 -7.52047804 -2.96748842 0 0 Z " fill="#6599D1" transform="translate(113.886962890625,1.13916015625)"/>
<path d="M0 0 C2.1875 -0.3125 2.1875 -0.3125 5 0 C5.70640625 0.73089844 6.4128125 1.46179688 7.140625 2.21484375 C10.62709622 5.61081913 14.28957951 7.61207564 18.5625 9.875 C20.16987634 10.74497593 21.77664566 11.61607433 23.3828125 12.48828125 C24.16688477 12.91189941 24.95095703 13.33551758 25.75878906 13.77197266 C29.80371797 15.9883117 33.7561124 18.35632598 37.71484375 20.72265625 C40.04612132 22.11918039 40.04612132 22.11918039 43 23 C43.33 22.34 43.66 21.68 44 21 C43.48348678 25.53739206 43.48348678 25.53739206 41.37744141 27.55249023 C40.66765137 27.98762939 39.95786133 28.42276855 39.2265625 28.87109375 C38.40961914 29.37624512 37.59267578 29.88139648 36.75097656 30.40185547 C31.66217538 33.35812921 26.537507 36.23685871 21.375 39.0625 C18.95734889 40.39405065 16.54125961 41.72842639 14.125 43.0625 C13.52078217 43.39560684 12.91656433 43.72871368 12.29403687 44.07191467 C6.63175764 47.1958172 0.9999259 50.37197149 -4.625 53.5625 C-13.77281034 58.74676549 -22.93166025 63.9109152 -32.12158203 69.02026367 C-36.72431268 71.58246251 -41.30652893 74.15990371 -45.81640625 76.8828125 C-46.5338501 77.30916992 -47.25129395 77.73552734 -47.99047852 78.17480469 C-49.267829 78.93770774 -50.53650541 79.71547599 -51.79272461 80.51269531 C-56.56447412 83.33766928 -60.62976941 84.17170506 -66 83 C-70.71930424 80.99383958 -75.08484575 78.46123031 -79.5 75.875 C-80.78555442 75.14095101 -82.07219431 74.40880007 -83.35986328 73.6784668 C-85.98396206 72.18700861 -88.6021249 70.68588178 -91.21582031 69.17626953 C-95.71638059 66.58075893 -100.25397617 64.05315086 -104.79394531 61.52734375 C-115.68606023 55.46504461 -126.54189815 49.33598346 -137.37890625 43.17578125 C-141.22309287 40.99361825 -145.08644944 38.85119833 -148.96484375 36.73046875 C-149.92616211 36.19824707 -150.88748047 35.66602539 -151.87792969 35.11767578 C-153.69648041 34.11105707 -155.52103969 33.11518638 -157.35253906 32.13232422 C-162.34435113 29.34846695 -165.28815539 27.07256884 -168 22 C-167.29278809 21.89727783 -166.58557617 21.79455566 -165.85693359 21.6887207 C-162.60232971 20.90413366 -160.19743677 19.63571327 -157.2890625 17.98046875 C-156.20882812 17.37009766 -155.12859375 16.75972656 -154.015625 16.13085938 C-152.89671875 15.48955078 -151.7778125 14.84824219 -150.625 14.1875 C-149.51382813 13.55779297 -148.40265625 12.92808594 -147.2578125 12.27929688 C-141.47193056 8.99989702 -141.47193056 8.99989702 -135.72167969 5.65869141 C-131.19639709 3 -131.19639709 3 -129 3 C-127.98323395 4.54645854 -127.03882877 6.14057023 -126.125 7.75 C-119.40202812 18.57370577 -110.20760223 26.95764053 -99 33 C-98.15179688 33.45890625 -97.30359375 33.9178125 -96.4296875 34.390625 C-78.57380562 43.23861423 -57.97450676 44.90552232 -38.8515625 39.39453125 C-28.33217212 35.77730893 -18.23570518 30.52626241 -10 23 C-9.14664063 22.2265625 -8.29328125 21.453125 -7.4140625 20.65625 C-2.08461472 15.59249316 1.9268183 10.69630117 5 4 C3.35 2.68 1.7 1.36 0 0 Z " fill="#01437F" transform="translate(168,153)"/>
<path d="M0 0 C4.01016718 3.07864564 7.42799524 6.70983973 10.37109375 10.8203125 C10.37109375 11.4803125 10.37109375 12.1403125 10.37109375 12.8203125 C9.33275391 13.39193115 9.33275391 13.39193115 8.2734375 13.97509766 C-4.33122424 20.92302303 -16.8997479 27.91477735 -29.31640625 35.1953125 C-30.29826904 35.76983154 -31.28013184 36.34435059 -32.29174805 36.9362793 C-35.9195412 39.05966384 -39.54730137 41.18303473 -43.16894531 43.31689453 C-45.42089344 44.64035978 -47.67982979 45.95089107 -49.94140625 47.2578125 C-50.91049927 47.83378174 -50.91049927 47.83378174 -51.89916992 48.42138672 C-53.43306959 49.30012425 -55.0275208 50.07158526 -56.62890625 50.8203125 C-59.62890625 49.8203125 -59.62890625 49.8203125 -60.578125 48.02734375 C-64.14407231 36.4615993 -63.92960067 24.81145828 -58.62890625 13.8203125 C-52.40614014 3.82383921 -43.70067547 -3.54736616 -32.19140625 -6.4296875 C-20.56898664 -8.63496712 -9.99726773 -6.36626009 0 0 Z " fill="#659AD2" transform="translate(129.62890625,85.1796875)"/>
<path d="M0 0 C3.4296875 1.53125 3.4296875 1.53125 6.875 3.5 C7.46796875 3.83386719 8.0609375 4.16773437 8.671875 4.51171875 C10.12104717 5.32979982 11.56146981 6.16334743 13 7 C13 7.66 13 8.32 13 9 C13.69738281 9.09667969 14.39476562 9.19335938 15.11328125 9.29296875 C18.54039291 10.13235604 21.12205488 11.56881806 24.1875 13.3125 C28.25100552 15.57000306 32.20444261 17.57100987 36.5625 19.1875 C40.17068963 20.54277123 42.56096101 21.89576856 45 25 C40.93223538 23.7702107 37.60074162 22.238962 34 20 C33.41734375 20.72445312 32.8346875 21.44890625 32.234375 22.1953125 C24.96816756 30.76395335 16.79454845 36.83772265 5.3984375 38.8125 C-5.68008727 39.6785736 -15.89523712 37.59104784 -24.8671875 30.84375 C-28.96933345 27.27666657 -32.60960851 23.95784902 -35 19 C-33.84325907 15.52977721 -33.39610745 15.37116553 -30.31640625 13.73046875 C-29.55811523 13.31909668 -28.79982422 12.90772461 -28.01855469 12.48388672 C-27.20805664 12.0560791 -26.39755859 11.62827148 -25.5625 11.1875 C-23.91185259 10.29986322 -22.2621058 9.41054951 -20.61328125 8.51953125 C-19.81615723 8.08979004 -19.0190332 7.66004883 -18.19775391 7.21728516 C-14.73714744 5.30053512 -11.42529241 3.16288121 -8.140625 0.9609375 C-5.18030075 -0.36796718 -3.22624605 -0.37440386 0 0 Z " fill="#014380" transform="translate(107,119)"/>
<path d="M0 0 C0 0.99 0 1.98 0 3 C-0.66 3.66 -1.32 4.32 -2 5 C-2.21676408 8.39597063 -2.08073852 10.75778445 -1 14 C-1.99 14 -2.98 14 -4 14 C-4.66 13.34 -5.32 12.68 -6 12 C-9.00870572 17.83482507 -9.43332648 22.55236915 -9.3125 29.0625 C-9.31733398 30.37057617 -9.31733398 30.37057617 -9.32226562 31.70507812 C-9.28169466 36.57728261 -8.69251263 40.38340172 -7 45 C-7.33 45.66 -7.66 46.32 -8 47 C-13.01164186 35.66933146 -13.76901537 24.62746571 -9.3515625 12.7734375 C-7.00376549 7.95570376 -3.78601369 3.78601369 0 0 Z M-2 10 C0 11 0 11 0 11 Z " fill="#6791BC" transform="translate(79,89)"/>
<path d="M0 0 C0.66 0.33 1.32 0.66 2 1 C-5.09133061 5.94776003 -12.49956718 10.19422121 -20.0625 14.375 C-21.21427734 15.01566406 -22.36605469 15.65632812 -23.55273438 16.31640625 C-26.36663684 17.88098273 -29.18240253 19.44209074 -32 21 C-32 20.01 -32 19.02 -32 18 C-28.7 16.35 -25.4 14.7 -22 13 C-22 12.34 -22 11.68 -22 11 C-21.47277344 10.90460938 -20.94554687 10.80921875 -20.40234375 10.7109375 C-17.19561011 9.76195291 -14.4936033 8.23117684 -11.5625 6.625 C-10.45003906 6.01914063 -9.33757812 5.41328125 -8.19140625 4.7890625 C-6.16601485 3.65365337 -4.16844724 2.4658469 -2.21484375 1.2109375 C-1.48394531 0.81132812 -0.75304687 0.41171875 0 0 Z " fill="#083566" transform="translate(209,178)"/>
<path d="M0 0 C0.66 0 1.32 0 2 0 C2.33 0.66 2.66 1.32 3 2 C4.98 1.67 6.96 1.34 9 1 C4.7716415 5.6623953 -1.32058894 9.21652919 -7.4765625 10.52734375 C-13.01085296 10.765071 -16.47617612 9.0800503 -21 6 C-20.34 5.67 -19.68 5.34 -19 5 C-18.401875 5.33 -17.80375 5.66 -17.1875 6 C-15.00663551 7.2552815 -15.00663551 7.2552815 -12.5 6.5 C-10 6 -10 6 -8.0625 7.0625 C-5.85393754 8.33028943 -5.85393754 8.33028943 -2.75 7.125 C-1.8425 6.75375 -0.935 6.3825 0 6 C-0.185625 5.38125 -0.37125 4.7625 -0.5625 4.125 C-1 2 -1 2 0 0 Z " fill="#06386E" transform="translate(116,226)"/>
<path d="M0 0 C1.34729581 3.79692456 0.70152698 6.89062854 0.0625 10.8125 C-1.11923029 18.5885174 -1.20060645 26.14291399 -1 34 C-4.59383329 29.92128444 -4.42446086 26.91588803 -4.30078125 21.65625 C-2.74505239 2.74505239 -2.74505239 2.74505239 0 0 Z " fill="#648EB8" transform="translate(30,96)"/>
<path d="M0 0 C0 0.33 0 0.66 0 1 C-8.25 1 -16.5 1 -25 1 C-25 1.66 -25 2.32 -25 3 C-26.98 3 -28.96 3 -31 3 C-23.05402521 -4.60049762 -9.61581699 -2.54603192 0 0 Z " fill="#6790BF" transform="translate(120,80)"/>
<path d="M0 0 C2.58951825 2.48593752 4.97085529 5.09640309 7.3125 7.8125 C10.70362077 11.72476704 14.28983556 15.39132942 18 19 C13.90060335 19 12.21343005 17.47701899 9 15 C7.125 12.25 7.125 12.25 6 10 C4.02 10.33 2.04 10.66 0 11 C0.66 10.67 1.32 10.34 2 10 C2.22036864 6.14354879 1.60355101 3.50776784 0 0 Z " fill="#093363" transform="translate(40,160)"/>
<path d="M0 0 C6.47962626 0.95288622 11.53902053 4.2766171 16.96484375 7.7265625 C19.92524774 9.5789458 22.95656949 11.28807034 26 13 C25.67 13.66 25.34 14.32 25 15 C16.75 10.38 8.5 5.76 0 1 C0 0.67 0 0.34 0 0 Z " fill="#083362" transform="translate(43,202)"/>
<path d="M0 0 C0.66 0.33 1.32 0.66 2 1 C-2.5980342 4.05757604 -6.7421955 6.2473985 -12 8 C-12.99 9.485 -12.99 9.485 -14 11 C-16.97 10.67 -19.94 10.34 -23 10 C-18.52827701 7.76413851 -13.96808183 6.06418982 -9.2890625 4.31640625 C-5.94854752 3.04401206 -5.94854752 3.04401206 -2.7109375 1.27734375 C-1.81632812 0.85582031 -0.92171875 0.43429688 0 0 Z " fill="#083161" transform="translate(146,185)"/>
<path d="M0 0 C0.66 0.66 1.32 1.32 2 2 C4.39388923 1.72197162 4.39388923 1.72197162 7 1 C7.928125 0.814375 8.85625 0.62875 9.8125 0.4375 C10.534375 0.293125 11.25625 0.14875 12 0 C9.03737648 2.24254141 6.03569632 4.41992775 3 6.5625 C2.154375 7.16191406 1.30875 7.76132812 0.4375 8.37890625 C-1.66312984 9.77595975 -3.71680481 10.93768002 -6 12 C-5.67 11.01 -5.34 10.02 -5 9 C-4.34 8.67 -3.68 8.34 -3 8 C-2.09656316 6.11736119 -2.09656316 6.11736119 -1.375 3.9375 C-0.98441406 2.83728516 -0.98441406 2.83728516 -0.5859375 1.71484375 C-0.39257812 1.14894531 -0.19921875 0.58304688 0 0 Z " fill="#6692BE" transform="translate(59,48)"/>
<path d="M0 0 C0.99 0.33 1.98 0.66 3 1 C-1.62 3.64 -6.24 6.28 -11 9 C-11.33 8.01 -11.66 7.02 -12 6 C-11.34 6 -10.68 6 -10 6 C-9.67 4.35 -9.34 2.7 -9 1 C-8.01 1.33 -7.02 1.66 -6 2 C-2.81509993 2.2773501 -2.81509993 2.2773501 0 0 Z " fill="#06396D" transform="translate(172,199)"/>
<path d="M0 0 C-12.48519362 6.70387244 -12.48519362 6.70387244 -19 7 C-16 5 -16 5 -12.9375 4.0625 C-9.72369498 3.2287898 -9.72369498 3.2287898 -8 0 C-4.6993784 -1.01557588 -3.32787119 -1.1092904 0 0 Z " fill="#0A3567" transform="translate(131,150)"/>
<path d="M0 0 C0.99 0.495 0.99 0.495 2 1 C2 1.66 2 2.32 2 3 C3.65 3 5.3 3 7 3 C6.896875 3.70125 6.79375 4.4025 6.6875 5.125 C7.14210034 9.30732311 9.16466151 10.95201113 12 14 C8.66950878 12.57369692 6.68261063 10.84985604 4.3125 8.125 C3.71050781 7.44695312 3.10851562 6.76890625 2.48828125 6.0703125 C0.99233806 3.98934166 0.4210244 2.50369174 0 0 Z " fill="#0A3568" transform="translate(72,136)"/>
<path d="M0 0 C0.66 0 1.32 0 2 0 C2.64779076 2.39531933 3.29329009 4.79121748 3.9375 7.1875 C4.21110352 8.19780273 4.21110352 8.19780273 4.49023438 9.22851562 C5.4488358 12.80148458 6.32883282 16.36156738 7 20 C4.09226354 16.5962379 2.73983355 13.07282513 1.25 8.875 C0.80140625 7.63492188 0.3528125 6.39484375 -0.109375 5.1171875 C-1 2 -1 2 0 0 Z " fill="#658CB8" transform="translate(28,131)"/>
<path d="M0 0 C-1.00546685 2.58160408 -1.68462642 3.8007222 -4.05859375 5.30078125 C-4.84363281 5.63464844 -5.62867188 5.96851563 -6.4375 6.3125 C-7.21996094 6.65925781 -8.00242187 7.00601562 -8.80859375 7.36328125 C-11 8 -11 8 -14 7 C-12.04480616 5.82807953 -10.0857461 4.6626071 -8.125 3.5 C-7.03445312 2.8503125 -5.94390625 2.200625 -4.8203125 1.53125 C-2 0 -2 0 0 0 Z " fill="#6692C0" transform="translate(62,23)"/>
<path d="M0 0 C0 0.99 0 1.98 0 3 C-2.125 4.5 -2.125 4.5 -5 6 C-6.546875 6.86625 -6.546875 6.86625 -8.125 7.75 C-11 9 -11 9 -14 8 C-9.38 5.36 -4.76 2.72 0 0 Z " fill="#6692C1" transform="translate(94,4)"/>
<path d="M0 0 C0.66 0.33 1.32 0.66 2 1 C1.67 1.598125 1.34 2.19625 1 2.8125 C-0.20787988 5.05386471 -0.20787988 5.05386471 0 8 C-0.5775 7.690625 -1.155 7.38125 -1.75 7.0625 C-3.84904107 6.07128616 -5.75074138 5.52451199 -8 5 C-6.71475739 4.13619741 -5.42157581 3.28419631 -4.125 2.4375 C-3.04605469 1.72400391 -3.04605469 1.72400391 -1.9453125 0.99609375 C-1.30335938 0.66738281 -0.66140625 0.33867188 0 0 Z " fill="#0C4F8A" transform="translate(158,86)"/>
<path d="M0 0 C5.64913063 1.65707832 10.26300637 3.47762012 15 7 C14.67 7.66 14.34 8.32 14 9 C7.07 5.04 7.07 5.04 0 1 C0 0.67 0 0.34 0 0 Z " fill="#073564" transform="translate(70,217)"/>
<path d="M0 0 C5.47932789 1.54545146 10.11429181 4.15543212 15 7 C12 8 12 8 10.09765625 7.36328125 C6.14056384 5.32017596 2.94646548 3.43754306 0 0 Z " fill="#678EBC" transform="translate(179,39)"/>
<path d="M0 0 C5.31027254 1.46032495 9.46330032 3.98320986 14 7 C10.37673261 8.2077558 9.35853631 7.54311128 6 6 C6 5.34 6 4.68 6 4 C5.195625 3.71125 4.39125 3.4225 3.5625 3.125 C1 2 1 2 0 0 Z " fill="#688DB6" transform="translate(165,31)"/>
<path d="M0 0 C0.66 0.33 1.32 0.66 2 1 C-0.27301934 3.54344286 -2.45086481 4.87616437 -5.5625 6.25 C-6.74005859 6.78367187 -6.74005859 6.78367187 -7.94140625 7.328125 C-10 8 -10 8 -12 7 C-10.04754815 5.80285445 -8.08785003 4.61751926 -6.125 3.4375 C-5.03445312 2.77621094 -3.94390625 2.11492188 -2.8203125 1.43359375 C-1.88960937 0.96050781 -0.95890625 0.48742188 0 0 Z " fill="#6A90B9" transform="translate(78,13)"/>
<path d="M0 0 C0.66 0.33 1.32 0.66 2 1 C1.175 1.433125 0.35 1.86625 -0.5 2.3125 C-1.7375 3.1478125 -1.7375 3.1478125 -3 4 C-3 4.99 -3 5.98 -3 7 C-5.97 6.505 -5.97 6.505 -9 6 C-3.30379747 1.25316456 -3.30379747 1.25316456 0 0 Z " fill="#0C4C84" transform="translate(169,80)"/>
<path d="M0 0 C1.32 0.33 2.64 0.66 4 1 C4.33 2.32 4.66 3.64 5 5 C5.66 5 6.32 5 7 5 C7 5.66 7 6.32 7 7 C7.99 7.33 8.98 7.66 10 8 C9.34 8.66 8.68 9.32 8 10 C6.66370254 8.52351062 5.33103329 7.0437367 4 5.5625 C3.2575 4.73878906 2.515 3.91507813 1.75 3.06640625 C0 1 0 1 0 0 Z " fill="#6690BE" transform="translate(160,60)"/>
<path d="M0 0 C0.66 0.33 1.32 0.66 2 1 C1.34 2.32 0.68 3.64 0 5 C0.66 5.33 1.32 5.66 2 6 C2 6.66 2 7.32 2 8 C1.38125 7.814375 0.7625 7.62875 0.125 7.4375 C-2.04160178 6.76313824 -2.04160178 6.76313824 -4 8 C-2.87548273 5.0280615 -1.77706209 2.66559313 0 0 Z " fill="#07376D" transform="translate(173,158)"/>
<path d="M0 0 C3.7910119 1.44950455 7.3874638 3.15172566 11 5 C9.3125 5.6875 9.3125 5.6875 7 6 C3.55439366 4.35923508 2.14325038 3.21487558 0 0 Z " fill="#698FB6" transform="translate(140,17)"/>
<path d="M0 0 C3.67230705 3.07999946 4.56802365 5.2482602 5 10 C3.35 10.33 1.7 10.66 0 11 C0.66 10.67 1.32 10.34 2 10 C2.22036864 6.14354879 1.60355101 3.50776784 0 0 Z " fill="#043A6F" transform="translate(40,160)"/>
<path d="M0 0 C3.81684226 1.55500981 6.19195732 4.03595495 9 7 C8.67 7.66 8.34 8.32 8 9 C6.66079162 7.88200014 5.32877444 6.75538103 4 5.625 C2.88625 4.68527344 2.88625 4.68527344 1.75 3.7265625 C1.1725 3.15679687 0.595 2.58703125 0 2 C0 1.34 0 0.68 0 0 Z " fill="#658BB5" transform="translate(129,86)"/>
<path d="M0 0 C3.77545388 1.09068668 6.47043472 1.9083091 9 5 C5.625 4.75 5.625 4.75 2 4 C0.5625 1.9375 0.5625 1.9375 0 0 Z " fill="#6890BB" transform="translate(120,81)"/>
<path d="M0 0 C-0.33 0.99 -0.66 1.98 -1 3 C-3.97 2.67 -6.94 2.34 -10 2 C-6.00889681 0.0044484 -4.30013434 -0.19546065 0 0 Z " fill="#06396F" transform="translate(133,193)"/>
<path d="M0 0 C0.66 0.33 1.32 0.66 2 1 C1.34 2.65 0.68 4.3 0 6 C-1.32 6 -2.64 6 -4 6 C-2.84826645 3.53199953 -1.95216435 1.95216435 0 0 Z " fill="#6B92C0" transform="translate(5,54)"/>
<path d="M0 0 C-0.66 1.65 -1.32 3.3 -2 5 C-3.65 4.01 -5.3 3.02 -7 2 C-6.01 1.67 -5.02 1.34 -4 1 C-2 0 -2 0 0 0 Z " fill="#124B80" transform="translate(7,174)"/>
<path d="M0 0 C0.33 1.32 0.66 2.64 1 4 C-1.375 5.5625 -1.375 5.5625 -4 7 C-4.66 6.67 -5.32 6.34 -6 6 C-4.02 4.02 -2.04 2.04 0 0 Z " fill="#093665" transform="translate(163,171)"/>
</svg>
